<?xml version="1.0" standalone="no"?>
<!DOCTYPE svg PUBLIC "-//W3C//DTD SVG 20010904//EN"
 "http://www.w3.org/TR/2001/REC-SVG-20010904/DTD/svg10.dtd">
<svg version="1.0" xmlns="http://www.w3.org/2000/svg"
 width="1000.000000pt" height="1000.000000pt" viewBox="0 0 1000.000000 1000.000000"
 preserveAspectRatio="xMidYMid meet">
<metadata>
Created by potrace 1.11, written by Peter Selinger 2001-2013
</metadata>
<g transform="translate(0.000000,1000.000000) scale(0.100000,-0.100000)"
fill="#000000" stroke="none">
<path d="M0 5000 l0 -5000 5000 0 5000 0 0 5000 0 5000 -5000 0 -5000 0 0
-5000z m3392 2610 c703 -47 1148 -197 1405 -473 80 -86 114 -136 168 -249 83
-173 125 -382 125 -618 0 -216 -32 -357 -121 -530 -125 -243 -327 -427 -632
-576 -105 -51 -125 -64 -106 -68 13 -3 71 -15 129 -27 393 -79 735 -250 951
-476 128 -134 215 -283 261 -450 20 -70 22 -102 22 -303 0 -241 -11 -338 -60
-510 -32 -109 -119 -287 -183 -371 -259 -340 -719 -518 -1469 -569 -89 -6
-556 -10 -1103 -10 l-949 0 0 2620 0 2620 704 0 c388 0 773 -5 858 -10z m2958
-5 c976 -94 1494 -533 1581 -1340 16 -149 6 -437 -20 -585 -40 -229 -118 -430
-233 -598 -159 -233 -426 -422 -751 -531 -65 -21 -121 -41 -123 -44 -3 -2 300
-476 672 -1053 372 -577 678 -1055 681 -1062 4 -10 -110 -12 -567 -10 l-573 3
-662 1027 c-364 564 -678 1048 -697 1075 -190 265 -526 523 -843 648 -38 15
-73 29 -78 32 -4 2 16 23 45 46 69 53 182 168 236 239 200 261 287 571 262
933 -29 409 -147 694 -381 921 -131 126 -266 214 -449 290 l-55 23 905 0 c704
1 937 -3 1050 -14z"/>
</g>
</svg>
