<svg xmlns="http://www.w3.org/2000/svg" width="80" height="17" viewBox="0 0 80 17">
    <g fill="none" fill-rule="evenodd">
        <g fill="#F4D473">
            <g>
                <path d="M30.82 9.5c0-4.695-3.84-8.5-8.576-8.5-1.404 0-2.728.336-3.897.929v-.001l-.033.018c-.104.053-.207.108-.308.165l-.09.052c-.086.05-.17.1-.254.153l-.135.085-.187.127-.182.128-.124.093c-.075.057-.15.115-.223.175l-.069.057c-.087.072-.173.145-.257.22l-.027.026c-.095.085-.187.172-.277.26l-.007.008c-.095.094-.187.19-.277.288l-.008.009c-.088.096-.173.193-.256.293l-.038.048c-.071.086-.142.173-.209.262l-.091.126c-.047.064-.094.128-.139.193-.054.078-.106.159-.157.24-.019.029-.038.057-.056.087-.629 1.008-1.048 2.155-1.205 3.385l-.01.075c-.011.098-.02.196-.029.295l-.011.152c-.006.078-.01.157-.012.236-.003.07-.005.14-.006.211l-.002.105h.002c0 1.302.299 2.623.937 3.863 2.153 4.18 7.319 5.84 11.538 3.706L22.246 9.5h8.574zM62.845 4.62C60.125.78 54.776-.15 50.899 2.545c-.838.583-1.537 1.287-2.093 2.071l-.002-.001c-.917 1.295-1.416 2.755-1.53 4.226v.005c-.008.108-.014.216-.018.324l-.005.111-.001.219.001.219.005.11c.004.109.01.217.018.325v.005c.114 1.47.613 2.931 1.53 4.226l.002-.001c.556.784 1.255 1.488 2.093 2.07 3.877 2.697 9.226 1.767 11.946-2.076L55.829 9.5l7.016-4.879zm10.922-3.357v5.404H70.65V1.264h-6.753v16.471h6.753v-5.404h3.116v5.404H80V1.265h-6.233zm-30.958 10.52c2.151-.724 3.702-2.738 3.702-5.115 0-2.985-2.441-5.405-5.453-5.405H31.97v16.471H47.03l-4.222-5.951zM7.79 1.264H0v16.471h7.273v-5.668l.517-.006c2.89-.136 5.194-2.494 5.194-5.392S10.68 1.399 7.79 1.264z" transform="translate(-40 -44) translate(40 43)"/>
            </g>
        </g>
    </g>
</svg>
